<svg width="408" height="222" viewBox="0 0 408 222" fill="none" xmlns="http://www.w3.org/2000/svg">
<g clip-path="url(#clip0_51_5)">
<g filter="url(#filter0_f_51_5)">
<ellipse cx="204" cy="112" rx="91" ry="43" fill="#D6B872" fill-opacity="0.8"/>
</g>
<path d="M48.7986 103.072H43.7586C40.3026 103.072 38.7186 101.584 38.7186 98.032V73.168H35.7906V99.04C35.7906 102.832 39.0066 106 42.7506 106H51.7266V73.168H48.7986V103.072ZM94.0509 73.168H91.1229C85.7949 73.408 82.0989 76.336 80.1789 80.56C78.2589 76.336 74.5629 73.408 69.2349 73.168H66.3069V106H69.2349V76.144H69.8589C72.8829 76.144 78.6909 79.264 78.6909 87.616V106H81.6669V87.616C81.6669 79.264 87.4749 76.144 90.4989 76.144H91.1229V106H94.0509V73.168ZM115.13 73.168C110.282 73.168 107.162 77.152 107.162 80.992V106H110.09V100.768H120.17V106H123.098V80.992C123.098 77.152 119.978 73.168 115.13 73.168ZM115.13 76.096C118.202 76.096 120.17 78.688 120.17 81.136V97.84H110.09V81.136C110.09 78.64 112.058 76.096 115.13 76.096ZM171.515 73.216V85.696L158.555 73.216V106H161.483L161.531 79.984L171.515 89.728V106H174.443V73.216H171.515ZM204.35 72.4C194.894 72.4 187.166 80.08 187.166 89.584C187.166 99.04 194.894 106.768 204.35 106.768C213.806 106.768 221.534 99.04 221.534 89.584C221.534 80.08 213.806 72.4 204.35 72.4ZM204.35 103.744C196.574 103.744 190.238 97.36 190.238 89.584C190.238 81.808 196.574 75.424 204.35 75.424C212.126 75.424 218.51 81.808 218.51 89.584C218.51 97.36 212.126 103.744 204.35 103.744ZM234.194 106H237.122V73.168H234.194V106ZM249.725 73.168V76.096H255.053V106H257.981V76.096H263.261V73.168H249.725ZM285.161 73.168H274.457V96.304C274.457 101.152 278.441 106 284.297 106H285.161V103.072H284.297C280.505 103.072 277.385 99.952 277.385 96.16V86.992H285.161V84.064H277.385V76.096H285.161V73.168ZM329.957 73.168H319.253V96.304C319.253 101.152 323.237 106 329.093 106H329.957V103.072H329.093C325.301 103.072 322.181 99.952 322.181 96.16V86.992H329.957V84.064H322.181V76.096H329.957V73.168ZM370.81 73.168H367.882C362.554 73.408 358.858 76.336 356.938 80.56C355.018 76.336 351.322 73.408 345.994 73.168H343.066V106H345.994V76.144H346.618C349.642 76.144 355.45 79.264 355.45 87.616V106H358.426V87.616C358.426 79.264 364.234 76.144 367.258 76.144H367.882V106H370.81V73.168ZM66.6293 116.168V126.584H57.7973V116.168H53.3333V149H57.7973V131.048H66.6293V149H71.0453V116.168H66.6293ZM99.9428 115.4C90.4868 115.4 82.7588 123.08 82.7588 132.584C82.7588 142.04 90.4868 149.768 99.9428 149.768C109.399 149.768 117.127 142.04 117.127 132.584C117.127 123.08 109.399 115.4 99.9428 115.4ZM99.9428 145.112C93.0788 145.112 87.4148 139.496 87.4148 132.584C87.4148 125.672 93.0788 120.056 99.9428 120.056C106.855 120.056 112.519 125.672 112.519 132.584C112.519 139.496 106.855 145.112 99.9428 145.112ZM128.879 116.168V149H140.975V144.584H133.343V116.168H128.879ZM152.706 116.168V149H164.802V144.584H157.17V116.168H152.706ZM185.639 122.12C185.639 124.616 183.767 126.68 181.079 126.68C178.391 126.68 176.519 124.568 176.519 122.12V116.168H172.103V122.12C172.103 125.672 174.455 129.8 178.871 130.856V149H183.287V130.856C187.703 129.8 190.055 125.672 190.055 122.12V116.168H185.639V122.12ZM233.253 149V116.168H228.789V144.584H228.597C225.573 144.584 219.765 141.464 219.765 133.112V116.168H215.349V133.112C215.349 141.464 209.541 144.584 206.517 144.584H206.325V116.168H201.861V149H206.325V148.952C211.461 148.664 215.301 145.976 217.557 141.992C219.813 145.976 223.653 148.664 228.789 148.952V149H233.253ZM262.158 115.4C252.702 115.4 244.974 123.08 244.974 132.584C244.974 142.04 252.702 149.768 262.158 149.768C271.614 149.768 279.342 142.04 279.342 132.584C279.342 123.08 271.614 115.4 262.158 115.4ZM262.158 145.112C255.294 145.112 249.63 139.496 249.63 132.584C249.63 125.672 255.294 120.056 262.158 120.056C269.07 120.056 274.734 125.672 274.734 132.584C274.734 139.496 269.07 145.112 262.158 145.112ZM307.126 115.4C297.67 115.4 289.942 123.08 289.942 132.584C289.942 142.04 297.67 149.768 307.126 149.768C316.582 149.768 324.31 142.04 324.31 132.584C324.31 123.08 316.582 115.4 307.126 115.4ZM307.126 145.112C300.262 145.112 294.598 139.496 294.598 132.584C294.598 125.672 300.262 120.056 307.126 120.056C314.038 120.056 319.702 125.672 319.702 132.584C319.702 139.496 314.038 145.112 307.126 145.112ZM336.063 116.168V149H338.319C349.503 149 355.743 141.656 355.743 132.584C355.743 123.56 349.503 116.168 338.319 116.168H336.063ZM340.527 144.584V120.584C346.863 121.688 351.327 125.816 351.327 132.584C351.327 139.448 346.863 143.528 340.527 144.584Z" fill="#D6B872"/>
<path d="M163.588 164.688H162.49C160.492 164.778 159.106 165.876 158.386 167.46C157.666 165.876 156.28 164.778 154.282 164.688H153.184V177H154.282V165.804H154.516C155.65 165.804 157.828 166.974 157.828 170.106V177H158.944V170.106C158.944 166.974 161.122 165.804 162.256 165.804H162.49V177H163.588V164.688ZM172.554 164.688H168.54V173.364C168.54 175.182 170.034 177 172.23 177H172.554V175.902H172.23C170.808 175.902 169.638 174.732 169.638 173.31V169.872H172.554V168.774H169.638V165.786H172.554V164.688ZM182.389 175.902C180.139 175.668 177.817 173.814 177.817 170.88C177.817 167.91 180.157 166.092 182.389 165.858V164.76C179.221 164.994 176.719 167.64 176.719 170.88C176.719 174.12 179.221 176.766 182.389 177V175.902ZM189.732 164.688C187.914 164.688 186.744 166.182 186.744 167.622V177H187.842V175.038H191.622V177H192.72V167.622C192.72 166.182 191.55 164.688 189.732 164.688ZM189.732 165.786C190.884 165.786 191.622 166.758 191.622 167.676V173.94H187.842V167.676C187.842 166.74 188.58 165.786 189.732 165.786ZM211.488 170.052C211.848 169.494 212.082 168.828 212.082 168.09C212.082 166.2 210.552 164.688 208.662 164.688C206.754 164.688 205.26 166.2 205.26 168.09C205.26 169.08 205.71 170.016 206.466 170.718L207.24 169.71C206.808 169.242 206.52 168.666 206.52 168.09C206.52 166.92 207.492 165.966 208.662 165.966C209.832 165.966 210.804 166.92 210.804 168.09C210.804 168.756 210.48 169.26 210.12 169.782L210.084 169.836C209.958 170.034 209.184 171.15 209.184 171.15L205.26 177H212.37V175.722H207.654L211.488 170.052ZM222.479 164.688C219.059 164.688 216.323 167.424 216.323 170.844C216.323 174.246 219.059 177 222.479 177C225.881 177 228.635 174.246 228.635 170.844C228.635 167.424 225.881 164.688 222.479 164.688ZM222.479 175.704C219.797 175.704 217.619 173.508 217.619 170.844C217.619 168.162 219.797 165.984 222.479 165.984C225.143 165.984 227.339 168.162 227.339 170.844C227.339 173.508 225.143 175.704 222.479 175.704ZM232.588 164.688L233.434 165.966H233.65V177H234.928V164.688H232.588ZM243.261 173.436C243.495 173.436 243.747 173.418 243.963 173.364L241.443 177H243.009C243.117 176.874 243.279 176.622 243.387 176.46C243.891 175.722 244.665 174.552 245.583 173.346C247.167 171.258 247.617 170.394 247.617 169.062C247.617 166.65 245.691 164.688 243.261 164.688C240.831 164.688 238.887 166.65 238.887 169.062C238.887 171.492 240.831 173.436 243.261 173.436ZM243.261 165.984C244.953 165.984 246.339 167.352 246.339 169.062C246.339 170.754 244.953 172.158 243.261 172.158C241.551 172.158 240.183 170.754 240.183 169.062C240.183 167.352 241.551 165.984 243.261 165.984ZM251.944 177H253.906V175.038H251.944V177ZM258.234 164.688L259.08 165.966H259.296V177H260.574V164.688H258.234Z" fill="#D6B872"/>
<path d="M57 170H115" stroke="#D6B872" stroke-width="2"/>
<path d="M131 163L132.572 167.837H137.657L133.543 170.826L135.114 175.663L131 172.674L126.886 175.663L128.457 170.826L124.343 167.837H129.428L131 163Z" fill="#D6B872"/>
<path d="M356 170H298" stroke="#D6B872" stroke-width="2"/>
<path d="M159.135 46.688V59H160.233V51.872H162.195V50.774H160.233V47.786H162.969V46.688H159.135ZM173.201 46.4C169.655 46.4 166.757 49.28 166.757 52.844C166.757 56.39 169.655 59.288 173.201 59.288C176.747 59.288 179.645 56.39 179.645 52.844C179.645 49.28 176.747 46.4 173.201 46.4ZM173.201 58.154C170.285 58.154 167.891 55.76 167.891 52.844C167.891 49.928 170.285 47.534 173.201 47.534C176.117 47.534 178.511 49.928 178.511 52.844C178.511 55.76 176.117 58.154 173.201 58.154ZM184.459 59H185.557V51.89H186.061C186.115 51.89 186.169 51.89 186.223 51.89L188.203 59H189.337L187.285 51.584C188.095 51.134 188.653 50.288 188.653 49.298C188.653 47.858 187.483 46.706 186.061 46.706H184.459V59ZM185.557 50.774V47.804H186.061C186.871 47.804 187.537 48.47 187.537 49.298C187.537 50.126 186.871 50.774 186.061 50.774H185.557ZM201.083 46.706L197.573 50.162L194.045 46.706V59H195.143V49.37L197.573 51.8L199.985 49.388V59H201.083V46.706ZM208.871 46.688L205.793 59H206.927L207.413 57.038H210.329L210.833 59H211.967L208.871 46.688ZM208.871 51.206L210.059 55.94H207.701L208.871 51.206ZM214.728 46.688V47.786H216.636V59H217.734V47.786H219.642V46.688H214.728ZM228.651 56.138C228.651 57.182 227.823 58.028 226.761 58.028C225.699 58.028 224.871 57.164 224.871 56.138V46.688H223.773V56.138C223.773 57.632 224.943 59.126 226.761 59.126C228.579 59.126 229.749 57.632 229.749 56.138V46.688H228.651V56.138ZM234.62 59H235.718V51.89H236.222C236.276 51.89 236.33 51.89 236.384 51.89L238.364 59H239.498L237.446 51.584C238.256 51.134 238.814 50.288 238.814 49.298C238.814 47.858 237.644 46.706 236.222 46.706H234.62V59ZM235.718 50.774V47.804H236.222C237.032 47.804 237.698 48.47 237.698 49.298C237.698 50.126 237.032 50.774 236.222 50.774H235.718ZM246.528 46.688L243.45 59H244.584L245.07 57.038H247.986L248.49 59H249.624L246.528 46.688ZM246.528 51.206L247.716 55.94H245.358L246.528 51.206Z" fill="#D6B872"/>
<path d="M372 52L265 52" stroke="#D6B872" stroke-width="2"/>
<path d="M143 52L36 52" stroke="#D6B872" stroke-width="2"/>
<path d="M282 163L283.572 167.837H288.657L284.543 170.826L286.114 175.663L282 172.674L277.886 175.663L279.457 170.826L275.343 167.837H280.428L282 163Z" fill="#D6B872"/>
</g>
<defs>
<filter id="filter0_f_51_5" x="-26" y="-70" width="460" height="364" filterUnits="userSpaceOnUse" color-interpolation-filters="sRGB">
<feFlood flood-opacity="0" result="BackgroundImageFix"/>
<feBlend mode="normal" in="SourceGraphic" in2="BackgroundImageFix" result="shape"/>
<feGaussianBlur stdDeviation="69.5" result="effect1_foregroundBlur_51_5"/>
</filter>
<clipPath id="clip0_51_5">
<rect width="408" height="222" fill="white"/>
</clipPath>
</defs>
</svg>
